<svg width="100" height="100" viewBox="0 0 100 100" fill="none" xmlns="http://www.w3.org/2000/svg">
<mask id="mask0_1_813" style="mask-type:alpha" maskUnits="userSpaceOnUse" x="0" y="0" width="100" height="100">
<circle cx="50" cy="50.084" r="48" fill="white" stroke="#4D5055" stroke-width="2.58397"/>
</mask>
<g mask="url(#mask0_1_813)">
<path d="M0.559842 20.4979C-9.79052 30.8483 -15.6053 44.8864 -15.6053 59.524C-15.6053 74.1616 -9.79052 88.1997 0.559839 98.5501C10.9102 108.9 24.9483 114.715 39.5859 114.715C54.2236 114.715 68.2617 108.9 78.612 98.5501L39.5859 59.524L0.559842 20.4979Z" fill="#0F59F6" stroke="#02060D" stroke-width="1.80878"/>
<path d="M91.5227 15.935C85.9122 10.3244 79.2515 5.87389 71.921 2.83749C64.5904 -0.198906 56.7336 -1.76172 48.7991 -1.76172C40.8646 -1.76172 33.0078 -0.198899 25.6773 2.8375C18.3468 5.87391 11.6861 10.3244 6.07557 15.935L48.7991 58.6585L91.5227 15.935Z" fill="#FFD955" stroke="#02060D" stroke-width="1.80878"/>
<path d="M93.0458 103.681C98.2279 98.4984 102.339 92.3463 105.143 85.5754C107.948 78.8046 109.391 71.5477 109.391 64.2191C109.391 56.8904 107.948 49.6335 105.143 42.8627C102.339 36.0919 98.2279 29.9397 93.0458 24.7576L53.5843 64.2191L93.0458 103.681Z" fill="#FF93B0" stroke="#02060D" stroke-width="1.80878"/>
<circle cx="49.8992" cy="49.9832" r="48.7" stroke="#02060D" stroke-width="1.80878"/>
</g>
</svg>
