<svg data-name="Layer 1" xmlns="http://www.w3.org/2000/svg" viewBox="0 0 114.86 114.73">
  <path
    d="M8.32 27.69c26.14 26.36 52.29 52.71 78.43 79.07a57.8 57.8 0 0 1-14.96 6.16c-.63.16-7.8 1.98-15.51 1.79-9.36-.23-27.57-3.57-41.46-18.93C3.16 82.88-.08 67.44 0 57.27c.07-8.31 2.37-15.97 2.61-16.75 1.56-5.09 3.64-9.1 3.98-9.76.66-1.27 1.27-2.31 1.73-3.06Z"
    style="fill:#115af5" />
  <path
    d="M56.52 0c11.36-.17 20.24 3.06 25.34 5.43 11.6 5.39 18.55 13.25 21.8 17.49-15.44 15.31-30.88 30.61-46.32 45.92C42.09 53.47 26.84 38.1 11.6 22.73c3.41-4.47 10.77-12.8 23.04-18.08C38.23 3.1 46.08.16 56.52 0"
    style="fill:#fed857" />
  <path
    d="M106.97 28.14a62 62 0 0 1 3.98 8.71c1.5 4.1 4.87 13.63 3.66 26.21-1.02 10.57-4.83 18.77-8 24.01a57.7 57.7 0 0 1-15.07 16.51C81.51 93.39 71.49 83.19 61.46 73c15.17-14.95 30.34-29.91 45.51-44.86"
    style="fill:#fe93b0" />
  <path
    d="M57.33 10.69c-8.83.01-15.99 7.17-16 16 0 13.69 14.55 24.03 15.17 24.46.5.35 1.17.35 1.67 0 .62-.43 15.17-10.77 15.17-24.46-.01-8.83-7.17-15.99-16-16Zm0 10.18c3.21 0 5.82 2.6 5.82 5.82s-2.6 5.82-5.82 5.82-5.82-2.6-5.82-5.82 2.6-5.82 5.82-5.82"
    style="fill:#e74c4c" />
  <circle cx="57.33" cy="26.69" r="5.79" style="fill:#fff" />
</svg>
