<svg width="48" height="48" viewBox="0 0 48 48" fill="none" xmlns="http://www.w3.org/2000/svg">
  <g clip-path="url(#clip0_380_128)">
    <path opacity="0.2"
      d="M37.5 10.5V39C37.5 39.3978 37.342 39.7794 37.0607 40.0607C36.7794 40.342 36.3978 40.5 36 40.5H12C11.6022 40.5 11.2206 40.342 10.9393 40.0607C10.658 39.7794 10.5 39.3978 10.5 39V10.5H37.5Z"
      fill="#FF5E5B" />
    <path d="M40.5 10.5H7.5" stroke="#FF5E5B" stroke-width="2" stroke-linecap="round"
      stroke-linejoin="round" />
    <path d="M19.5 19.5V31.5" stroke="#FF5E5B" stroke-width="2" stroke-linecap="round"
      stroke-linejoin="round" />
    <path d="M28.5 19.5V31.5" stroke="#FF5E5B" stroke-width="2" stroke-linecap="round"
      stroke-linejoin="round" />
    <path
      d="M37.5 10.5V39C37.5 39.3978 37.342 39.7794 37.0607 40.0607C36.7794 40.342 36.3978 40.5 36 40.5H12C11.6022 40.5 11.2206 40.342 10.9393 40.0607C10.658 39.7794 10.5 39.3978 10.5 39V10.5"
      stroke="#FF5E5B" stroke-width="2" stroke-linecap="round" stroke-linejoin="round" />
    <path
      d="M31.5 10.5V7.5C31.5 6.70435 31.1839 5.94129 30.6213 5.37868C30.0587 4.81607 29.2956 4.5 28.5 4.5H19.5C18.7044 4.5 17.9413 4.81607 17.3787 5.37868C16.8161 5.94129 16.5 6.70435 16.5 7.5V10.5"
      stroke="#FF5E5B" stroke-width="2" stroke-linecap="round" stroke-linejoin="round" />
  </g>
  <defs>
    <clipPath id="clip0_380_128">
      <rect width="48" height="48" fill="white" />
    </clipPath>
  </defs>
</svg>
