<svg width="36" height="36" viewBox="0 0 36 36" fill="none" xmlns="http://www.w3.org/2000/svg">
<g clip-path="url(#clip0_4235_8474)">
<path d="M18 3.375C15.1075 3.375 12.2799 4.23274 9.87479 5.83976C7.46972 7.44677 5.5952 9.73089 4.48827 12.4033C3.38134 15.0756 3.09171 18.0162 3.65602 20.8532C4.22033 23.6902 5.61323 26.2961 7.65857 28.3414C9.70391 30.3868 12.3098 31.7797 15.1468 32.344C17.9838 32.9083 20.9244 32.6187 23.5968 31.5117C26.2691 30.4048 28.5532 28.5303 30.1602 26.1252C31.7673 23.7201 32.625 20.8926 32.625 18C32.6209 14.1225 31.0788 10.4049 28.3369 7.66309C25.5951 4.92125 21.8775 3.37909 18 3.375ZM16.875 11.25C16.875 10.9516 16.9935 10.6655 17.2045 10.4545C17.4155 10.2435 17.7016 10.125 18 10.125C18.2984 10.125 18.5845 10.2435 18.7955 10.4545C19.0065 10.6655 19.125 10.9516 19.125 11.25V19.125C19.125 19.4234 19.0065 19.7095 18.7955 19.9205C18.5845 20.1315 18.2984 20.25 18 20.25C17.7016 20.25 17.4155 20.1315 17.2045 19.9205C16.9935 19.7095 16.875 19.4234 16.875 19.125V11.25ZM18 25.875C17.6663 25.875 17.34 25.776 17.0625 25.5906C16.785 25.4052 16.5687 25.1416 16.441 24.8333C16.3132 24.5249 16.2798 24.1856 16.3449 23.8583C16.41 23.5309 16.5708 23.2303 16.8068 22.9943C17.0428 22.7583 17.3434 22.5975 17.6708 22.5324C17.9981 22.4673 18.3374 22.5007 18.6458 22.6285C18.9541 22.7562 19.2177 22.9725 19.4031 23.25C19.5885 23.5275 19.6875 23.8537 19.6875 24.1875C19.6875 24.6351 19.5097 25.0643 19.1932 25.3807C18.8768 25.6972 18.4476 25.875 18 25.875Z" fill="#662524"/>
</g>
<defs>
<clipPath id="clip0_4235_8474">
<rect width="36" height="36" fill="white"/>
</clipPath>
</defs>
</svg>
