<svg width="48" height="48" viewBox="0 0 48 48" fill="none" xmlns="http://www.w3.org/2000/svg">
  <g clip-path="url(#clip0_380_178)">
    <path opacity="0.2"
      d="M30.8344 6H17.1656C16.9686 5.99985 16.7734 6.03851 16.5914 6.1138C16.4093 6.18908 16.2438 6.2995 16.1044 6.43875L6.43875 16.1044C6.2995 16.2438 6.18908 16.4093 6.1138 16.5914C6.03851 16.7734 5.99985 16.9686 6 17.1656V30.8344C5.99985 31.0314 6.03851 31.2266 6.1138 31.4087C6.18908 31.5907 6.2995 31.7562 6.43875 31.8956L16.1044 41.5613C16.2438 41.7005 16.4093 41.8109 16.5914 41.8862C16.7734 41.9615 16.9686 42.0002 17.1656 42H30.8344C31.0314 42.0002 31.2266 41.9615 31.4087 41.8862C31.5907 41.8109 31.7562 41.7005 31.8956 41.5613L41.5613 31.8956C41.7005 31.7562 41.8109 31.5907 41.8862 31.4087C41.9615 31.2266 42.0002 31.0314 42 30.8344V17.1656C42.0002 16.9686 41.9615 16.7734 41.8862 16.5914C41.8109 16.4093 41.7005 16.2438 41.5613 16.1044L31.8956 6.43875C31.7562 6.2995 31.5907 6.18908 31.4087 6.1138C31.2266 6.03851 31.0314 5.99985 30.8344 6Z"
      fill="#2059CC" />
    <path d="M24 25.5V15" stroke="#2059CC" stroke-width="2" stroke-linecap="round"
      stroke-linejoin="round" />
    <path
      d="M30.8344 6H17.1656C16.9686 5.99985 16.7734 6.03851 16.5914 6.1138C16.4093 6.18908 16.2438 6.2995 16.1044 6.43875L6.43875 16.1044C6.2995 16.2438 6.18908 16.4093 6.1138 16.5914C6.03851 16.7734 5.99985 16.9686 6 17.1656V30.8344C5.99985 31.0314 6.03851 31.2266 6.1138 31.4087C6.18908 31.5907 6.2995 31.7562 6.43875 31.8956L16.1044 41.5613C16.2438 41.7005 16.4093 41.8109 16.5914 41.8862C16.7734 41.9615 16.9686 42.0002 17.1656 42H30.8344C31.0314 42.0002 31.2266 41.9615 31.4087 41.8862C31.5907 41.8109 31.7562 41.7005 31.8956 41.5613L41.5613 31.8956C41.7005 31.7562 41.8109 31.5907 41.8862 31.4087C41.9615 31.2266 42.0002 31.0314 42 30.8344V17.1656C42.0002 16.9686 41.9615 16.7734 41.8862 16.5914C41.8109 16.4093 41.7005 16.2438 41.5613 16.1044L31.8956 6.43875C31.7562 6.2995 31.5907 6.18908 31.4087 6.1138C31.2266 6.03851 31.0314 5.99985 30.8344 6Z"
      stroke="#2059CC" stroke-width="2" stroke-miterlimit="10" />
    <path
      d="M24 34.5C25.2426 34.5 26.25 33.4926 26.25 32.25C26.25 31.0074 25.2426 30 24 30C22.7574 30 21.75 31.0074 21.75 32.25C21.75 33.4926 22.7574 34.5 24 34.5Z"
      fill="#2059CC" />
  </g>
  <defs>
    <clipPath id="clip0_380_178">
      <rect width="48" height="48" fill="white" />
    </clipPath>
  </defs>
</svg>
