<svg width="48" height="48" viewBox="0 0 48 48" fill="none" xmlns="http://www.w3.org/2000/svg">
<g clip-path="url(#clip0_381_241)">
<path d="M28.6087 27.2304L32.9212 29.3829C32.7168 30.4044 32.1644 31.3232 31.3581 31.9828C30.5518 32.6424 29.5417 33.0018 28.5 32.9998C24.9208 32.9958 21.4893 31.5723 18.9584 29.0414C16.4276 26.5105 15.004 23.079 15 19.4998C14.9997 18.4594 15.3599 17.4511 16.0194 16.6463C16.6788 15.8416 17.5967 15.2902 18.6169 15.0861L20.7694 19.3986L18.9375 22.1248C18.8006 22.3302 18.7165 22.5661 18.6926 22.8117C18.6687 23.0574 18.7058 23.3051 18.8006 23.5329C19.8738 26.0837 21.903 28.1128 24.4538 29.1861C24.6823 29.2851 24.9319 29.3256 25.18 29.304C25.4282 29.2824 25.667 29.1993 25.875 29.0623L28.6087 27.2304ZM43.5 23.9998C43.5007 27.3664 42.6298 30.6759 40.9721 33.6061C39.3143 36.5363 36.9262 38.9874 34.0401 40.7207C31.154 42.4541 27.8683 43.4108 24.5028 43.4976C21.1373 43.5844 17.8066 42.7984 14.835 41.2161L8.45062 43.3442C7.92204 43.5205 7.3548 43.5461 6.81249 43.4181C6.27018 43.2901 5.77423 43.0136 5.38022 42.6196C4.98622 42.2256 4.70973 41.7296 4.58175 41.1873C4.45376 40.645 4.47935 40.0778 4.65562 39.5492L6.78375 33.1648C5.39278 30.5496 4.61587 27.6519 4.512 24.6916C4.40812 21.7314 4.98001 18.7863 6.18426 16.0801C7.3885 13.3738 9.19345 10.9775 11.4621 9.07292C13.7307 7.16838 16.4035 5.80571 19.2774 5.08833C22.1513 4.37095 25.1509 4.31773 28.0484 4.93269C30.946 5.54766 33.6654 6.81465 36.0002 8.63751C38.3349 10.4604 40.2238 12.7912 41.5233 15.453C42.8228 18.1148 43.4988 21.0377 43.5 23.9998ZM36 28.4998C36.0002 28.2211 35.9228 27.9479 35.7764 27.7108C35.63 27.4737 35.4205 27.282 35.1712 27.1573L29.1712 24.1573C28.9351 24.0396 28.672 23.9863 28.4087 24.0028C28.1453 24.0192 27.8909 24.1049 27.6712 24.2511L24.9169 26.0886C23.6525 25.3935 22.612 24.353 21.9169 23.0886L23.7544 20.3342C23.9006 20.1145 23.9862 19.8601 24.0027 19.5968C24.0191 19.3334 23.9658 19.0704 23.8481 18.8342L20.8481 12.8342C20.7238 12.5831 20.5316 12.3718 20.2933 12.2243C20.055 12.0769 19.7802 11.9991 19.5 11.9998C17.5109 11.9998 15.6032 12.79 14.1967 14.1965C12.7902 15.603 12 17.5107 12 19.4998C12.005 23.8744 13.7449 28.0683 16.8382 31.1616C19.9315 34.2549 24.1255 35.9949 28.5 35.9998C29.4849 35.9998 30.4602 35.8058 31.3701 35.4289C32.2801 35.052 33.1069 34.4996 33.8033 33.8031C34.4997 33.1067 35.0522 32.2799 35.4291 31.3699C35.806 30.46 36 29.4847 36 28.4998Z" fill="#019F2B"/>
</g>
<defs>
<clipPath id="clip0_381_241">
<rect width="48" height="48" fill="white"/>
</clipPath>
</defs>
</svg>
