<svg width="48" height="48" viewBox="0 0 48 48" fill="none" xmlns="http://www.w3.org/2000/svg">
  <g clip-path="url(#clip0_380_150)">
    <path opacity="0.2"
      d="M19.5 23.8009C18.3009 21.6309 17.8033 19.1427 18.0758 16.6784C18.3482 14.2141 19.3773 11.8947 21.0215 10.039C22.6657 8.18337 24.8443 6.88252 27.2578 6.31532C29.6714 5.74812 32.2014 5.94242 34.5 6.87151L27 14.9996L28.0612 19.9384L33 20.9996L41.1281 13.4996C42.0572 15.7983 42.2515 18.3282 41.6843 20.7418C41.1171 23.1553 39.8163 25.3339 37.9606 26.9781C36.1049 28.6223 33.7855 29.6514 31.3212 29.9238C28.8569 30.1963 26.3688 29.6987 24.1987 28.4996L13.6875 40.6871C12.8421 41.5325 11.6955 42.0074 10.5 42.0074C9.30445 42.0074 8.15787 41.5325 7.31249 40.6871C6.46712 39.8418 5.99219 38.6952 5.99219 37.4996C5.99219 36.3041 6.46712 35.1575 7.31249 34.3121L19.5 23.8009Z"
      fill="#F4CF65" />
    <path
      d="M19.5 23.8009C18.3009 21.6309 17.8033 19.1427 18.0758 16.6784C18.3482 14.2141 19.3773 11.8947 21.0215 10.039C22.6657 8.18337 24.8443 6.88252 27.2578 6.31532C29.6714 5.74812 32.2014 5.94242 34.5 6.87151L27 14.9996L28.0612 19.9384L33 20.9996L41.1281 13.4996C42.0572 15.7983 42.2515 18.3282 41.6843 20.7418C41.1171 23.1553 39.8163 25.3339 37.9606 26.9781C36.1049 28.6223 33.7855 29.6514 31.3212 29.9238C28.8569 30.1963 26.3688 29.6987 24.1987 28.4996L13.6875 40.6871C12.8421 41.5325 11.6955 42.0074 10.5 42.0074C9.30445 42.0074 8.15787 41.5325 7.31249 40.6871C6.46712 39.8418 5.99219 38.6952 5.99219 37.4996C5.99219 36.3041 6.46712 35.1575 7.31249 34.3121L19.5 23.8009Z"
      stroke="#F4CF65" stroke-width="2" stroke-linecap="round" stroke-linejoin="round" />
  </g>
  <defs>
    <clipPath id="clip0_380_150">
      <rect width="48" height="48" fill="white" />
    </clipPath>
  </defs>
</svg>
