<svg width="398" height="460" viewBox="0 0 398 460" fill="none" xmlns="http://www.w3.org/2000/svg">
<g clip-path="url(#clip0_397_550)">
<path d="M58.2381 163.317L56.9443 169.138L57.9074 169.352L59.2012 163.531L58.2381 163.317Z" fill="#89C1F7"/>
<path d="M48.9479 440.553L47.976 440.376L50.0817 429.07L51.0536 429.246L48.9479 440.553ZM53.1592 417.939L52.1874 417.763L54.293 406.456L55.2649 406.633L53.1592 417.939ZM55.0735 395.341L52.9531 384.034L53.9249 383.857L56.0453 395.164L55.0735 395.341ZM50.8474 372.727L48.727 361.42L49.6989 361.244L51.8193 372.55L50.8474 372.727ZM46.6066 350.128L44.6924 339.94L44.9133 338.659L45.8851 338.821L45.6937 339.94L47.5637 349.951L46.5919 350.128H46.6066ZM47.873 327.5L46.9011 327.338L48.8595 316.016L49.8314 316.178L47.873 327.5ZM51.8045 304.842L50.8327 304.68L52.8058 293.359L53.7777 293.521L51.8193 304.842H51.8045ZM55.7361 282.184L54.7642 282.022L54.9262 281.11L53.2181 270.848L54.2047 270.686L55.9422 281.11L55.7508 282.184H55.7361ZM51.3186 259.497L49.4338 248.161L50.4204 247.999L52.3052 259.335L51.3186 259.497ZM47.549 236.81L45.6642 225.474L46.6508 225.312L48.5356 236.648L47.549 236.81ZM47.9172 214.24L46.9453 214.02L49.4485 202.801L50.4204 203.022L47.9172 214.24ZM52.9236 191.804L51.9518 191.583L54.455 180.364L55.4269 180.585L52.9236 191.804Z" fill="#89C1F7"/>
<path d="M102.145 163.38L101.429 169.3L102.408 169.418L103.125 163.499L102.145 163.38Z" fill="#89C1F7"/>
<path d="M96.2423 440.818L95.2704 440.582L97.9651 429.452L98.9369 429.688L96.2423 440.818ZM101.632 418.572L100.66 418.337L103.354 407.206L104.326 407.442L101.632 418.572ZM104.945 396.268L102.898 385.005L103.87 384.828L105.917 396.091L104.945 396.268ZM100.851 373.742L98.8044 362.48L99.7762 362.303L101.823 373.566L100.851 373.742ZM96.7724 351.217L94.7256 339.955V339.881L95.3735 339.91L95.7122 339.852L97.7442 351.041L96.7724 351.217ZM97.0521 328.559L96.0656 328.442L97.3908 317.076L98.3774 317.194L97.0521 328.559ZM99.7026 305.828L98.716 305.71L100.041 294.345L101.028 294.462L99.7026 305.828ZM102.368 283.097L101.381 282.979L101.602 281.094L100.557 271.716L101.543 271.613L102.603 281.109L102.368 283.097ZM99.2903 260.336L98.024 248.955L99.0106 248.852L100.277 260.233L99.2903 260.336ZM96.7429 237.59L95.4766 226.209L96.4631 226.106L97.7295 237.487L96.7429 237.59ZM96.9343 214.858L95.9478 214.741L97.3172 203.375L98.3037 203.493L96.9343 214.858ZM99.6732 192.127L98.6866 192.009L100.056 180.644L101.043 180.761L99.6732 192.127Z" fill="#89C1F7"/>
<path d="M92.5868 451.732L91.1865 457.528L92.1455 457.76L93.5458 451.964L92.5868 451.732Z" fill="#89C1F7"/>
<path d="M151.295 163.309L149.991 169.127L150.954 169.343L152.258 163.524L151.295 163.309Z" fill="#89C1F7"/>
<path d="M141.36 440.772L140.403 440.536L143.186 429.362L144.143 429.598L141.36 440.772ZM146.926 418.409L145.969 418.173L148.752 406.999L149.709 407.234L146.926 418.409ZM150.268 395.986L148.104 384.665L149.076 384.474L151.24 395.795L150.268 395.986ZM145.954 373.358L143.789 362.037L144.761 361.845L146.926 373.167L145.954 373.358ZM141.639 350.715L139.578 339.938L139.681 339.232L140.668 339.379L140.594 339.924L142.626 350.538L141.654 350.73L141.639 350.715ZM142.317 327.969L141.33 327.822L142.979 316.412L143.966 316.559L142.317 327.969ZM145.615 305.164L144.629 305.017L146.278 293.607L147.264 293.754L145.615 305.164ZM148.914 282.359L147.927 282.212L148.089 281.093L146.381 271.008L147.353 270.846L149.09 281.093L148.914 282.359ZM144.452 259.657L142.523 248.291L143.495 248.129L145.424 259.495L144.452 259.657ZM140.594 236.94L138.665 225.575L139.637 225.413L141.566 236.779L140.594 236.94ZM140.888 214.327L139.917 214.106L142.435 202.858L143.406 203.079L140.888 214.327ZM145.924 191.831L144.953 191.61L147.471 180.362L148.442 180.583L145.924 191.831Z" fill="#89C1F7"/>
<path d="M137.612 451.722L136.169 457.508L137.126 457.746L138.569 451.961L137.612 451.722Z" fill="#89C1F7"/>
<path d="M195.21 163.375L194.493 169.294L195.473 169.412L196.189 163.493L195.21 163.375Z" fill="#89C1F7"/>
<path d="M191.348 439.402L190.362 439.299L191.658 426.962L192.644 427.065L191.348 439.402ZM193.94 414.713L192.953 414.61L194.249 402.273L195.236 402.376L193.94 414.713ZM193.012 390.171L190.745 377.966L191.716 377.789L193.984 389.994L193.012 390.171ZM188.492 365.761L186.224 353.556L187.196 353.38L189.464 365.584L188.492 365.761ZM183.971 341.351L183.706 339.938L185.768 328.97L186.739 329.146L184.707 339.923L184.943 341.16L183.971 341.337V341.351ZM189.036 316.956L188.065 316.78L190.362 304.589L191.334 304.766L189.036 316.956ZM193.616 292.561L192.644 292.385L194.764 281.078L194.676 280.327L195.663 280.209L195.766 281.107L193.616 292.561ZM193.263 267.99L191.849 255.652L192.836 255.534L194.249 267.872L193.263 267.99ZM190.435 243.33L189.022 231.007L190.008 230.889L191.422 243.212L190.435 243.33ZM189.449 218.684L188.462 218.567L189.964 206.244L190.951 206.362L189.449 218.684ZM192.453 194.039L191.466 193.921L192.968 181.599L193.955 181.716L192.453 194.039Z" fill="#89C1F7"/>
<path d="M189.084 451.677L188.464 457.607L189.445 457.71L190.065 451.78L189.084 451.677Z" fill="#89C1F7"/>
<path d="M245.024 163.333L243.741 169.156L244.705 169.368L245.987 163.545L245.024 163.333Z" fill="#89C1F7"/>
<path d="M238.605 440.492L237.618 440.331L239.429 429.009L240.416 429.171L238.605 440.492ZM242.242 417.849L241.255 417.687L243.066 406.366L244.053 406.528L242.242 417.849ZM243.655 395.236L241.623 383.958L242.595 383.782L244.627 395.059L243.655 395.236ZM239.606 372.666L237.574 361.389L238.546 361.212L240.578 372.49L239.606 372.666ZM235.542 350.097L233.716 339.953L233.893 338.658L234.879 338.79L234.732 339.939L236.529 349.935L235.557 350.112L235.542 350.097ZM236.367 327.41L235.38 327.277L236.867 315.912L237.854 316.044L236.367 327.41ZM239.356 304.678L238.369 304.546L239.856 293.18L240.843 293.313L239.356 304.678ZM242.345 281.947L241.358 281.815L241.447 281.108L239.768 270.64L240.755 270.478L242.448 281.093L242.33 281.947H242.345ZM237.972 259.304L236.16 247.982L237.147 247.821L238.958 259.142L237.972 259.304ZM234.349 236.661L232.538 225.339L233.525 225.177L235.336 236.499L234.349 236.661ZM234.85 214.15L233.878 213.93L236.337 202.726L237.309 202.947L234.85 214.15ZM239.768 191.743L238.796 191.522L241.255 180.318L242.227 180.539L239.768 191.743Z" fill="#89C1F7"/>
<path d="M235.799 451.617L234.858 457.505L235.833 457.66L236.773 451.772L235.799 451.617Z" fill="#89C1F7"/>
<path d="M288.345 72.3386L287.833 79.1357L288.964 79.2209L289.476 72.4238L288.345 72.3386Z" fill="#89C1F7"/>
<path d="M283.442 437.212L282.308 437.065L284.163 423.343L285.297 423.49L283.442 437.212ZM287.152 409.784L286.019 409.637L287.874 395.915L289.008 396.063L287.152 409.784ZM290.863 382.341L289.729 382.194L289.95 380.575L288.345 368.635L289.479 368.488L291.099 380.575L290.863 382.356V382.341ZM286.519 354.899L284.679 341.178L285.812 341.03L287.653 354.752L286.519 354.899ZM282.838 327.456L280.997 313.735L282.131 313.588L283.972 327.309L282.838 327.456ZM281.145 299.984L280.011 299.867L281.41 286.101L282.543 286.219L281.145 299.984ZM283.942 272.453L282.808 272.336L284.207 258.57L285.341 258.688L283.942 272.453ZM286.74 244.908L285.606 244.79L287.005 231.025L288.139 231.142L286.74 244.908ZM286.887 217.318L286.004 203.509L287.138 203.435L288.021 217.245L286.887 217.318ZM285.12 189.684L284.237 175.875L285.371 175.801L286.254 189.611L285.12 189.684ZM283.353 162.05L282.543 149.463L282.632 148.152L283.766 148.241L283.677 149.463L284.487 161.977L283.353 162.05ZM284.811 134.446L283.677 134.357L284.723 120.548L285.857 120.636L284.811 134.446ZM286.887 106.841L285.753 106.753L286.799 92.9434L287.933 93.0317L286.887 106.841Z" fill="#89C1F7"/>
<path d="M280.461 450.805L279.554 457.561L280.677 457.711L281.585 450.956L280.461 450.805Z" fill="#89C1F7"/>
<path d="M334.298 72.3412L333.765 79.1367L334.895 79.2255L335.429 72.4299L334.298 72.3412Z" fill="#89C1F7"/>
<path d="M330.354 437.166L329.22 437.033L330.928 423.282L332.062 423.415L330.354 437.166ZM333.755 409.679L332.621 409.546L334.315 395.796L335.448 395.928L333.755 409.679ZM337.157 382.192L336.023 382.06L336.199 380.573L334.447 368.5L335.566 368.338L337.333 380.573L337.127 382.207L337.157 382.192ZM332.474 354.779L330.486 341.073L331.605 340.911L333.593 354.617L332.474 354.779ZM328.498 327.366L326.51 313.66L327.629 313.498L329.617 327.204L328.498 327.366ZM326.584 299.924L325.45 299.791L327.04 286.026L328.174 286.158L326.584 299.924ZM329.765 272.407L328.631 272.275L330.221 258.509L331.355 258.642L329.765 272.407ZM332.93 244.891L331.797 244.759L333.387 230.993L334.521 231.126L332.93 244.891ZM333.225 217.316L332.194 203.507L333.328 203.418L334.359 217.228L333.225 217.316ZM331.178 189.697L330.147 175.887L331.281 175.799L332.312 189.609L331.178 189.697ZM329.131 162.063L328.204 149.461L328.307 148.165L329.441 148.253L329.338 149.461L330.28 161.975L329.146 162.063H329.131ZM330.516 134.444L329.382 134.355L330.471 120.546L331.605 120.634L330.516 134.444ZM332.71 106.839L331.576 106.751L332.665 92.9414L333.799 93.0297L332.71 106.839Z" fill="#89C1F7"/>
<path d="M327.501 450.749L326.669 457.515L327.794 457.653L328.626 450.887L327.501 450.749Z" fill="#89C1F7"/>
<path d="M385.112 72.2912L383.927 79.0039L385.043 79.201L386.228 72.4883L385.112 72.2912Z" fill="#89C1F7"/>
<path d="M375.793 437.007L374.66 436.919L375.764 423.065L376.898 423.153L375.793 437.007ZM378.002 409.299L376.868 409.211L377.973 395.357L379.106 395.446L378.002 409.299ZM380.196 381.592L379.062 381.504L379.136 380.591L377.354 367.856L378.473 367.694L380.27 380.561L380.181 381.592H380.196ZM375.44 354.076L373.526 340.31L374.645 340.148L376.559 353.914L375.44 354.076ZM371.597 326.545L369.683 312.779L370.802 312.617L372.716 326.383L371.597 326.545ZM370.257 299.043L369.138 298.867L371.317 285.145L372.436 285.322L370.257 299.043ZM374.601 271.586L373.482 271.409L375.661 257.688L376.78 257.865L374.601 271.586ZM378.959 244.129L377.84 243.952L380.019 230.231L381.139 230.408L378.959 244.129ZM379.43 216.598L377.781 202.788L378.915 202.656L380.564 216.465L379.43 216.598ZM376.132 188.993L374.483 175.184L375.617 175.051L377.266 188.861L376.132 188.993ZM372.848 161.389L371.42 149.42L371.773 147.432L372.893 147.624L372.569 149.434L373.982 161.242L372.848 161.374V161.389ZM375.322 133.946L374.203 133.755L376.633 120.063L377.752 120.255L375.322 133.946ZM380.167 106.578L379.048 106.386L381.477 92.6943L382.596 92.8857L380.167 106.578Z" fill="#89C1F7"/>
<path d="M201.041 342.576C247.763 352.985 278.097 326.808 286.726 288.118C295.34 249.427 278.98 212.857 232.258 202.448C185.536 192.039 155.202 218.216 146.574 256.906C137.96 295.597 154.319 332.167 201.041 342.576Z" fill="url(#paint0_radial_397_550)"/>
<path d="M216.647 248.867C213.879 261.308 201.539 269.14 189.096 266.372C176.654 263.604 168.82 251.267 171.588 238.827C174.357 226.386 186.696 218.554 199.139 221.322C211.581 224.09 219.415 236.427 216.647 248.867Z" fill="white"/>
<path d="M226.661 251.105C223.892 263.545 231.726 275.883 244.169 278.651C256.611 281.418 268.936 273.586 271.719 261.146C274.502 248.705 266.654 236.368 254.211 233.6C241.769 230.832 229.429 238.665 226.661 251.105Z" fill="white"/>
<path d="M193.677 260.513C202.556 262.486 211.347 256.892 213.32 248.029C215.293 239.166 209.712 230.362 200.833 228.389C191.954 226.416 183.163 232.011 181.19 240.874C179.217 249.736 184.812 258.54 193.677 260.513Z" fill="#2970FF"/>
<path d="M242.521 271.391C233.642 269.418 228.061 260.614 230.034 251.752C232.007 242.889 240.813 237.294 249.677 239.267C258.542 241.24 264.137 250.044 262.164 258.907C260.191 267.784 251.385 273.364 242.521 271.391Z" fill="#2970FF"/>
<path d="M188.126 288.646C186.005 288.794 184.4 290.634 184.547 292.754C184.695 294.874 186.535 296.479 188.656 296.331L236.998 292.989C239.118 292.842 240.723 291.002 240.576 288.882C240.429 286.762 238.588 285.157 236.468 285.304L188.126 288.646Z" fill="#2970FF"/>
<path d="M204.647 94.8714C205.486 93.4433 205.913 91.9564 205.913 90.4547C205.913 76.7481 169.926 65.6475 125.515 65.6475C81.1046 65.6475 45.1169 76.7481 45.1169 90.4547C45.1169 92.4864 45.912 94.4592 47.3992 96.3436C19.1273 99.3176 0.0732422 104.912 0.0732422 111.316C0.0732422 120.842 42.2455 128.571 94.2835 128.571C98.9955 128.571 103.634 128.512 108.154 128.38C120.391 137.257 148.928 143.499 182.177 143.499C226.572 143.499 262.575 132.399 262.575 118.692C262.575 107.4 238.117 97.8748 204.662 94.8714H204.647Z" fill="url(#paint1_linear_397_550)"/>
<path d="M353.721 24.2178C354.87 22.7603 355.503 21.2291 355.503 19.6686C355.503 9.08316 327.702 0.5 293.393 0.5C259.084 0.5 231.283 9.08316 231.283 19.6686C231.283 20.8316 231.636 21.98 232.284 23.0842C206.427 25.3956 187.521 32.7568 187.521 41.4871C187.521 52.0725 215.321 60.6557 249.63 60.6557C275.325 60.6557 297.369 55.8415 306.822 48.9808C310.327 49.0692 313.905 49.1281 317.542 49.1281C357.741 49.1281 390.327 43.1655 390.327 35.8043C390.327 30.8576 375.588 26.5439 353.736 24.2325L353.721 24.2178Z" fill="url(#paint2_linear_397_550)"/>
<path d="M213.733 459.5C315.265 459.5 397.574 457.292 397.574 454.568C397.574 451.844 315.265 449.636 213.733 449.636C112.2 449.636 29.8916 451.844 29.8916 454.568C29.8916 457.292 112.2 459.5 213.733 459.5Z" fill="url(#paint3_linear_397_550)"/>
</g>
<defs>
<radialGradient id="paint0_radial_397_550" cx="0" cy="0" r="1" gradientUnits="userSpaceOnUse" gradientTransform="translate(216.65 272.512) scale(72.3289 72.3164)">
<stop stop-color="#1F92FF"/>
<stop offset="0.3" stop-color="#45A4FF"/>
<stop offset="0.74" stop-color="#78BDFF"/>
<stop offset="0.95" stop-color="#8DC7FF"/>
</radialGradient>
<linearGradient id="paint1_linear_397_550" x1="0.0732422" y1="104.573" x2="262.56" y2="104.573" gradientUnits="userSpaceOnUse">
<stop stop-color="#CFCFCF"/>
<stop offset="0.41" stop-color="#AFAFAF"/>
<stop offset="0.76" stop-color="#9B9B9B"/>
<stop offset="1" stop-color="#949494"/>
</linearGradient>
<linearGradient id="paint2_linear_397_550" x1="187.521" y1="30.5778" x2="390.312" y2="30.5778" gradientUnits="userSpaceOnUse">
<stop stop-color="#CFCFCF"/>
<stop offset="0.41" stop-color="#AFAFAF"/>
<stop offset="0.76" stop-color="#9B9B9B"/>
<stop offset="1" stop-color="#949494"/>
</linearGradient>
<linearGradient id="paint3_linear_397_550" x1="29.8916" y1="454.568" x2="397.574" y2="454.568" gradientUnits="userSpaceOnUse">
<stop stop-color="#CFCFCF"/>
<stop offset="0.41" stop-color="#AFAFAF"/>
<stop offset="0.76" stop-color="#9B9B9B"/>
<stop offset="1" stop-color="#949494"/>
</linearGradient>
<clipPath id="clip0_397_550">
<rect width="397.5" height="459" fill="white" transform="translate(0.0732422 0.5)"/>
</clipPath>
</defs>
</svg>
