<svg width="32" height="33" viewBox="0 0 32 33" fill="none" xmlns="http://www.w3.org/2000/svg">
<g clip-path="url(#clip0_1_839)">
<path d="M28.9999 16.0844C28.9959 19.2617 27.8301 22.3278 25.7223 24.7052C23.6145 27.0827 20.7101 28.6073 17.5562 28.9919C17.486 28.9999 17.4149 28.9929 17.3475 28.9713C17.2802 28.9498 17.2182 28.9142 17.1657 28.867C17.1131 28.8197 17.0712 28.7619 17.0426 28.6972C17.014 28.6326 16.9995 28.5626 16.9999 28.4919V19.0844H19.9999C20.137 19.0847 20.2727 19.0569 20.3986 19.0025C20.5244 18.9482 20.6378 18.8685 20.7315 18.7685C20.8253 18.6685 20.8975 18.5503 20.9437 18.4213C20.9899 18.2922 21.009 18.155 20.9999 18.0182C20.9779 17.761 20.8592 17.5218 20.6679 17.3486C20.4766 17.1753 20.2268 17.081 19.9687 17.0844H16.9999V14.0844C16.9999 13.554 17.2107 13.0453 17.5857 12.6702C17.9608 12.2952 18.4695 12.0844 18.9999 12.0844H20.9999C21.137 12.0847 21.2727 12.0569 21.3986 12.0025C21.5244 11.9482 21.6378 11.8685 21.7315 11.7685C21.8253 11.6685 21.8975 11.5503 21.9437 11.4212C21.9899 11.2922 22.009 11.155 21.9999 11.0182C21.9778 10.7606 21.8588 10.521 21.667 10.3477C21.4751 10.1744 21.2247 10.0803 20.9662 10.0844H18.9999C17.9391 10.0844 16.9217 10.5059 16.1715 11.256C15.4214 12.0062 14.9999 13.0236 14.9999 14.0844V17.0844H11.9999C11.8629 17.0841 11.7272 17.112 11.6013 17.1664C11.4755 17.2207 11.3621 17.3004 11.2683 17.4004C11.1746 17.5003 11.1023 17.6186 11.0562 17.7476C11.01 17.8767 10.9909 18.0139 10.9999 18.1507C11.0221 18.4083 11.141 18.6479 11.3329 18.8212C11.5248 18.9945 11.7752 19.0886 12.0337 19.0844H14.9999V28.4944C15.0004 28.565 14.9859 28.6348 14.9574 28.6994C14.9289 28.7639 14.887 28.8217 14.8346 28.869C14.7822 28.9162 14.7204 28.9518 14.6532 28.9734C14.5861 28.995 14.5151 29.0022 14.4449 28.9944C11.2066 28.6001 8.2344 27.0043 6.11654 24.523C3.99867 22.0417 2.88955 18.8557 3.00869 15.5957C3.25869 8.84569 8.72619 3.35819 15.4812 3.09569C17.2301 3.02795 18.9746 3.31363 20.6105 3.93565C22.2464 4.55766 23.7401 5.50324 25.0021 6.71581C26.2642 7.92838 27.2687 9.38304 27.9556 10.9928C28.6425 12.6025 28.9977 14.3343 28.9999 16.0844Z" fill="#E9F0FF"/>
</g>
<defs>
<clipPath id="clip0_1_839">
<rect width="32" height="32" fill="white" transform="translate(0 0.0839844)"/>
</clipPath>
</defs>
</svg>
