<svg width="32" height="33" viewBox="0 0 32 33" fill="none" xmlns="http://www.w3.org/2000/svg">
<g clip-path="url(#clip0_1_842)">
<path d="M20 16.084C20 16.8751 19.7654 17.6485 19.3259 18.3063C18.8864 18.9641 18.2616 19.4768 17.5307 19.7795C16.7998 20.0823 15.9956 20.1615 15.2196 20.0071C14.4437 19.8528 13.731 19.4718 13.1716 18.9124C12.6122 18.353 12.2312 17.6403 12.0769 16.8643C11.9225 16.0884 12.0017 15.2842 12.3045 14.5533C12.6072 13.8223 13.1199 13.1976 13.7777 12.7581C14.4355 12.3186 15.2089 12.084 16 12.084C17.0609 12.084 18.0783 12.5054 18.8284 13.2556C19.5786 14.0057 20 15.0231 20 16.084ZM29 10.084V22.084C28.998 23.9399 28.2599 25.7192 26.9476 27.0315C25.6352 28.3439 23.8559 29.082 22 29.084H10C8.14409 29.082 6.36477 28.3439 5.05245 27.0315C3.74012 25.7192 3.00199 23.9399 3 22.084V10.084C3.00199 8.22808 3.74012 6.44875 5.05245 5.13643C6.36477 3.82411 8.14409 3.08597 10 3.08398H22C23.8559 3.08597 25.6352 3.82411 26.9476 5.13643C28.2599 6.44875 28.998 8.22808 29 10.084ZM22 16.084C22 14.8973 21.6481 13.7373 20.9888 12.7506C20.3295 11.7639 19.3925 10.9948 18.2961 10.5407C17.1997 10.0866 15.9933 9.96776 14.8295 10.1993C13.6656 10.4308 12.5965 11.0022 11.7574 11.8413C10.9182 12.6805 10.3468 13.7496 10.1153 14.9134C9.88378 16.0773 10.0026 17.2837 10.4567 18.3801C10.9108 19.4764 11.6799 20.4135 12.6666 21.0728C13.6533 21.7321 14.8133 22.084 16 22.084C17.5908 22.0823 19.116 21.4497 20.2408 20.3248C21.3657 19.1999 21.9983 17.6748 22 16.084ZM25 8.58398C25 8.28731 24.912 7.9973 24.7472 7.75063C24.5824 7.50396 24.3481 7.3117 24.074 7.19816C23.7999 7.08463 23.4983 7.05493 23.2074 7.11281C22.9164 7.17068 22.6491 7.31355 22.4393 7.52332C22.2296 7.7331 22.0867 8.00038 22.0288 8.29135C21.9709 8.58232 22.0007 8.88392 22.1142 9.15801C22.2277 9.4321 22.42 9.66637 22.6666 9.83119C22.9133 9.99601 23.2033 10.084 23.5 10.084C23.8978 10.084 24.2794 9.92595 24.5607 9.64464C24.842 9.36334 25 8.98181 25 8.58398Z" fill="#E9F0FF"/>
</g>
<defs>
<clipPath id="clip0_1_842">
<rect width="32" height="32" fill="white" transform="translate(0 0.0839844)"/>
</clipPath>
</defs>
</svg>
