<svg width="32" height="33" viewBox="0 0 32 33" fill="none" xmlns="http://www.w3.org/2000/svg">
<g clip-path="url(#clip0_1_836)">
<path d="M27 3.08398H5C4.46957 3.08398 3.96086 3.2947 3.58579 3.66977C3.21071 4.04484 3 4.55355 3 5.08398V27.084C3 27.6144 3.21071 28.1231 3.58579 28.4982C3.96086 28.8733 4.46957 29.084 5 29.084H27C27.5304 29.084 28.0391 28.8733 28.4142 28.4982C28.7893 28.1231 29 27.6144 29 27.084V5.08398C29 4.55355 28.7893 4.04484 28.4142 3.66977C28.0391 3.2947 27.5304 3.08398 27 3.08398ZM12 22.084C12 22.3492 11.8946 22.6036 11.7071 22.7911C11.5196 22.9786 11.2652 23.084 11 23.084C10.7348 23.084 10.4804 22.9786 10.2929 22.7911C10.1054 22.6036 10 22.3492 10 22.084V14.084C10 13.8188 10.1054 13.5644 10.2929 13.3769C10.4804 13.1893 10.7348 13.084 11 13.084C11.2652 13.084 11.5196 13.1893 11.7071 13.3769C11.8946 13.5644 12 13.8188 12 14.084V22.084ZM11 12.084C10.7033 12.084 10.4133 11.996 10.1666 11.8312C9.91997 11.6664 9.72771 11.4321 9.61418 11.158C9.50065 10.8839 9.47094 10.5823 9.52882 10.2913C9.5867 10.0004 9.72956 9.7331 9.93934 9.52332C10.1491 9.31355 10.4164 9.17068 10.7074 9.11281C10.9983 9.05493 11.2999 9.08463 11.574 9.19816C11.8481 9.3117 12.0824 9.50396 12.2472 9.75063C12.412 9.9973 12.5 10.2873 12.5 10.584C12.5 10.9818 12.342 11.3633 12.0607 11.6446C11.7794 11.9259 11.3978 12.084 11 12.084ZM23 22.084C23 22.3492 22.8946 22.6036 22.7071 22.7911C22.5196 22.9786 22.2652 23.084 22 23.084C21.7348 23.084 21.4804 22.9786 21.2929 22.7911C21.1054 22.6036 21 22.3492 21 22.084V17.584C21 16.9209 20.7366 16.2851 20.2678 15.8162C19.7989 15.3474 19.163 15.084 18.5 15.084C17.837 15.084 17.2011 15.3474 16.7322 15.8162C16.2634 16.2851 16 16.9209 16 17.584V22.084C16 22.3492 15.8946 22.6036 15.7071 22.7911C15.5196 22.9786 15.2652 23.084 15 23.084C14.7348 23.084 14.4804 22.9786 14.2929 22.7911C14.1054 22.6036 14 22.3492 14 22.084V14.084C14.0012 13.839 14.0923 13.6031 14.256 13.4208C14.4197 13.2386 14.6446 13.1228 14.888 13.0953C15.1314 13.0679 15.3764 13.1308 15.5765 13.272C15.7767 13.4132 15.918 13.623 15.9738 13.8615C16.6502 13.4026 17.4389 13.1366 18.2552 13.0921C19.0714 13.0477 19.8844 13.2264 20.6067 13.6091C21.329 13.9918 21.9335 14.564 22.3551 15.2643C22.7768 15.9646 22.9997 16.7665 23 17.584V22.084Z" fill="#E9F0FF"/>
</g>
<defs>
<clipPath id="clip0_1_836">
<rect width="32" height="32" fill="white" transform="translate(0 0.0839844)"/>
</clipPath>
</defs>
</svg>
