<svg width="32" height="33" viewBox="0 0 32 33" fill="none" xmlns="http://www.w3.org/2000/svg">
<g clip-path="url(#clip0_1_833)">
<path d="M26.8755 27.5652C26.7894 27.7221 26.6628 27.8529 26.5089 27.9442C26.355 28.0354 26.1794 28.0837 26.0005 28.084H20.0005C19.8322 28.0839 19.6666 28.0414 19.5191 27.9603C19.3716 27.8793 19.247 27.7623 19.1567 27.6202L14.0955 19.6665L6.74049 27.7565C6.56119 27.9491 6.3132 28.0633 6.05029 28.0742C5.78738 28.0852 5.53074 27.9921 5.336 27.8152C5.14126 27.6382 5.02413 27.3916 5.00999 27.1288C4.99586 26.8661 5.08586 26.6083 5.26049 26.4115L12.9817 17.9115L5.15674 5.62148C5.06036 5.47029 5.00641 5.29596 5.00054 5.11676C4.99466 4.93756 5.03707 4.76007 5.12333 4.60289C5.20959 4.4457 5.33653 4.3146 5.49085 4.22331C5.64516 4.13202 5.82119 4.0839 6.00049 4.08398H12.0005C12.1688 4.08404 12.3344 4.12657 12.4818 4.20763C12.6293 4.2887 12.754 4.40568 12.8442 4.54773L17.9055 12.5015L25.2605 4.41148C25.4398 4.21888 25.6878 4.10471 25.9507 4.09373C26.2136 4.08274 26.4702 4.17583 26.665 4.3528C26.8597 4.52978 26.9768 4.77638 26.991 5.03914C27.0051 5.3019 26.9151 5.55964 26.7405 5.75648L19.0192 14.2502L26.8442 26.5477C26.9401 26.699 26.9935 26.8732 26.999 27.0522C27.0045 27.2312 26.9619 27.4084 26.8755 27.5652Z" fill="#E9F0FF"/>
</g>
<defs>
<clipPath id="clip0_1_833">
<rect width="32" height="32" fill="white" transform="translate(0 0.0839844)"/>
</clipPath>
</defs>
</svg>
